<?xml version="1.0" encoding="UTF-8"?>
<svg xmlns="http://www.w3.org/2000/svg" version="1.1" width="100" height="100" viewBox="0 0 100 100"><rect x="0" y="0" width="100" height="100" fill="#ffffff"/><g transform="scale(2.439)"><g transform="translate(0,0)"><path fill-rule="evenodd" d="M8 0L8 1L9 1L9 0ZM10 0L10 1L11 1L11 2L8 2L8 5L9 5L9 6L8 6L8 7L9 7L9 8L8 8L8 9L7 9L7 8L6 8L6 9L7 9L7 10L6 10L6 11L3 11L3 9L4 9L4 10L5 10L5 9L4 9L4 8L0 8L0 9L1 9L1 10L0 10L0 12L3 12L3 13L4 13L4 12L5 12L5 15L4 15L4 14L2 14L2 16L3 16L3 17L1 17L1 13L0 13L0 18L1 18L1 19L2 19L2 20L3 20L3 21L4 21L4 20L5 20L5 21L7 21L7 20L8 20L8 21L9 21L9 23L8 23L8 24L6 24L6 25L5 25L5 22L4 22L4 23L0 23L0 25L3 25L3 24L4 24L4 25L5 25L5 26L4 26L4 27L3 27L3 26L1 26L1 27L0 27L0 29L2 29L2 28L4 28L4 27L7 27L7 26L8 26L8 29L7 29L7 28L6 28L6 29L7 29L7 30L5 30L5 31L2 31L2 32L1 32L1 33L2 33L2 32L3 32L3 33L4 33L4 32L6 32L6 33L7 33L7 32L6 32L6 31L7 31L7 30L8 30L8 29L9 29L9 28L11 28L11 29L13 29L13 28L14 28L14 27L15 27L15 29L16 29L16 30L15 30L15 31L17 31L17 32L16 32L16 33L15 33L15 32L14 32L14 33L15 33L15 34L14 34L14 35L12 35L12 34L13 34L13 33L11 33L11 35L10 35L10 34L9 34L9 33L10 33L10 32L12 32L12 31L11 31L11 30L10 30L10 31L8 31L8 34L9 34L9 35L10 35L10 36L11 36L11 35L12 35L12 37L8 37L8 41L11 41L11 40L12 40L12 38L13 38L13 39L14 39L14 40L13 40L13 41L14 41L14 40L15 40L15 41L16 41L16 40L17 40L17 39L18 39L18 40L19 40L19 39L21 39L21 41L23 41L23 40L24 40L24 39L26 39L26 40L25 40L25 41L27 41L27 40L29 40L29 38L28 38L28 37L30 37L30 40L31 40L31 38L32 38L32 41L35 41L35 40L34 40L34 39L33 39L33 38L34 38L34 37L36 37L36 38L35 38L35 39L36 39L36 40L37 40L37 41L38 41L38 38L39 38L39 41L40 41L40 39L41 39L41 35L40 35L40 34L41 34L41 32L39 32L39 31L40 31L40 30L39 30L39 29L37 29L37 28L38 28L38 27L37 27L37 26L39 26L39 27L41 27L41 25L37 25L37 26L36 26L36 25L33 25L33 31L32 31L32 32L30 32L30 31L29 31L29 32L28 32L28 30L30 30L30 29L32 29L32 24L33 24L33 23L30 23L30 22L32 22L32 20L30 20L30 19L31 19L31 18L30 18L30 17L31 17L31 15L32 15L32 14L31 14L31 15L30 15L30 14L29 14L29 13L30 13L30 12L31 12L31 10L33 10L33 12L32 12L32 13L33 13L33 12L35 12L35 13L34 13L34 15L33 15L33 16L32 16L32 19L33 19L33 18L34 18L34 19L35 19L35 20L33 20L33 21L34 21L34 22L37 22L37 24L38 24L38 23L40 23L40 24L41 24L41 23L40 23L40 22L41 22L41 19L40 19L40 18L41 18L41 17L40 17L40 18L38 18L38 17L39 17L39 16L41 16L41 11L39 11L39 10L40 10L40 9L41 9L41 8L40 8L40 9L39 9L39 8L36 8L36 10L37 10L37 11L34 11L34 10L35 10L35 9L34 9L34 8L33 8L33 6L32 6L32 4L33 4L33 1L32 1L32 0L31 0L31 1L32 1L32 2L31 2L31 3L32 3L32 4L31 4L31 6L30 6L30 5L29 5L29 4L30 4L30 3L29 3L29 2L27 2L27 3L29 3L29 4L26 4L26 2L25 2L25 3L24 3L24 0L23 0L23 2L22 2L22 0L17 0L17 1L16 1L16 2L17 2L17 1L21 1L21 2L18 2L18 4L19 4L19 5L17 5L17 4L16 4L16 3L15 3L15 1L14 1L14 2L12 2L12 1L13 1L13 0ZM25 0L25 1L29 1L29 0ZM11 2L11 3L12 3L12 2ZM21 2L21 8L20 8L20 6L19 6L19 9L21 9L21 11L20 11L20 10L19 10L19 11L18 11L18 10L16 10L16 9L15 9L15 10L14 10L14 11L13 11L13 10L12 10L12 11L11 11L11 9L12 9L12 8L13 8L13 9L14 9L14 6L15 6L15 7L16 7L16 6L15 6L15 5L16 5L16 4L15 4L15 3L13 3L13 5L12 5L12 4L11 4L11 5L12 5L12 6L11 6L11 7L12 7L12 8L10 8L10 12L11 12L11 13L12 13L12 14L11 14L11 16L9 16L9 15L10 15L10 14L9 14L9 15L8 15L8 14L7 14L7 13L8 13L8 12L9 12L9 9L8 9L8 11L6 11L6 12L7 12L7 13L6 13L6 14L7 14L7 15L6 15L6 16L4 16L4 15L3 15L3 16L4 16L4 17L3 17L3 18L2 18L2 19L3 19L3 20L4 20L4 18L7 18L7 19L5 19L5 20L7 20L7 19L8 19L8 18L9 18L9 19L12 19L12 18L11 18L11 16L12 16L12 17L13 17L13 16L14 16L14 17L16 17L16 18L17 18L17 19L18 19L18 18L19 18L19 20L17 20L17 22L16 22L16 24L15 24L15 23L14 23L14 24L15 24L15 25L16 25L16 26L15 26L15 27L16 27L16 28L17 28L17 26L19 26L19 25L20 25L20 27L19 27L19 29L18 29L18 30L17 30L17 31L18 31L18 33L17 33L17 34L15 34L15 36L13 36L13 38L16 38L16 37L17 37L17 38L18 38L18 35L19 35L19 37L20 37L20 38L21 38L21 39L22 39L22 38L23 38L23 39L24 39L24 37L25 37L25 38L26 38L26 37L25 37L25 33L26 33L26 36L27 36L27 37L28 37L28 35L29 35L29 36L30 36L30 37L32 37L32 38L33 38L33 37L32 37L32 35L31 35L31 34L32 34L32 33L31 33L31 34L30 34L30 33L26 33L26 31L27 31L27 30L26 30L26 31L24 31L24 30L22 30L22 29L21 29L21 30L22 30L22 31L20 31L20 28L21 28L21 26L23 26L23 27L22 27L22 28L24 28L24 29L25 29L25 28L26 28L26 27L25 27L25 26L24 26L24 25L25 25L25 24L24 24L24 23L29 23L29 24L30 24L30 26L29 26L29 25L28 25L28 24L27 24L27 25L26 25L26 26L27 26L27 27L28 27L28 28L29 28L29 29L30 29L30 28L31 28L31 27L30 27L30 26L31 26L31 24L30 24L30 23L29 23L29 22L30 22L30 21L29 21L29 22L28 22L28 21L27 21L27 18L28 18L28 17L30 17L30 15L29 15L29 14L26 14L26 15L24 15L24 13L25 13L25 12L24 12L24 13L23 13L23 9L24 9L24 10L25 10L25 11L26 11L26 13L29 13L29 12L30 12L30 10L31 10L31 8L32 8L32 6L31 6L31 7L30 7L30 6L29 6L29 7L30 7L30 10L29 10L29 9L28 9L28 10L27 10L27 9L26 9L26 8L28 8L28 5L27 5L27 7L26 7L26 4L25 4L25 5L22 5L22 2ZM9 3L9 5L10 5L10 3ZM13 5L13 6L12 6L12 7L13 7L13 6L14 6L14 5ZM9 6L9 7L10 7L10 6ZM17 6L17 7L18 7L18 6ZM22 6L22 8L21 8L21 9L22 9L22 8L23 8L23 6ZM24 6L24 7L25 7L25 6ZM25 9L25 10L26 10L26 11L27 11L27 10L26 10L26 9ZM38 9L38 10L39 10L39 9ZM28 10L28 11L29 11L29 10ZM15 11L15 12L14 12L14 14L12 14L12 16L13 16L13 15L15 15L15 16L16 16L16 17L17 17L17 16L16 16L16 15L15 15L15 13L17 13L17 14L18 14L18 17L19 17L19 16L20 16L20 17L21 17L21 18L20 18L20 20L19 20L19 22L17 22L17 23L18 23L18 24L17 24L17 25L18 25L18 24L21 24L21 23L19 23L19 22L20 22L20 20L21 20L21 22L22 22L22 24L23 24L23 23L24 23L24 21L23 21L23 20L21 20L21 19L22 19L22 17L23 17L23 18L24 18L24 19L25 19L25 17L26 17L26 16L25 16L25 17L24 17L24 16L23 16L23 14L21 14L21 13L19 13L19 14L18 14L18 13L17 13L17 12L18 12L18 11L17 11L17 12L16 12L16 11ZM19 11L19 12L20 12L20 11ZM37 11L37 12L36 12L36 13L35 13L35 14L40 14L40 12L39 12L39 11ZM37 12L37 13L39 13L39 12ZM20 14L20 16L21 16L21 14ZM27 15L27 16L28 16L28 15ZM34 15L34 17L35 17L35 19L36 19L36 20L37 20L37 21L38 21L38 20L37 20L37 19L36 19L36 18L37 18L37 17L38 17L38 16L39 16L39 15L37 15L37 17L36 17L36 15ZM6 16L6 17L7 17L7 18L8 18L8 17L7 17L7 16ZM13 18L13 20L10 20L10 21L11 21L11 22L10 22L10 23L13 23L13 22L14 22L14 21L16 21L16 20L15 20L15 18ZM28 19L28 20L29 20L29 19ZM13 20L13 21L14 21L14 20ZM39 20L39 22L40 22L40 20ZM0 21L0 22L2 22L2 21ZM22 21L22 22L23 22L23 21ZM6 22L6 23L7 23L7 22ZM34 23L34 24L36 24L36 23ZM9 24L9 25L8 25L8 26L10 26L10 27L11 27L11 28L12 28L12 27L14 27L14 26L12 26L12 25L13 25L13 24L12 24L12 25L11 25L11 26L10 26L10 24ZM6 25L6 26L7 26L7 25ZM27 25L27 26L28 26L28 25ZM24 27L24 28L25 28L25 27ZM34 27L34 31L33 31L33 32L34 32L34 31L36 31L36 32L38 32L38 30L37 30L37 29L36 29L36 30L35 30L35 28L36 28L36 27ZM40 28L40 29L41 29L41 28ZM3 29L3 30L4 30L4 29ZM0 30L0 31L1 31L1 30ZM21 32L21 33L22 33L22 32ZM24 32L24 33L25 33L25 32ZM18 33L18 34L17 34L17 35L16 35L16 36L15 36L15 37L16 37L16 36L17 36L17 35L18 35L18 34L20 34L20 33ZM33 33L33 36L36 36L36 33ZM21 34L21 35L22 35L22 37L21 37L21 38L22 38L22 37L23 37L23 35L24 35L24 34ZM34 34L34 35L35 35L35 34ZM37 34L37 36L40 36L40 35L38 35L38 34ZM30 35L30 36L31 36L31 35ZM10 38L10 39L9 39L9 40L10 40L10 39L11 39L11 38ZM27 38L27 39L28 39L28 38ZM36 38L36 39L37 39L37 38ZM15 39L15 40L16 40L16 39ZM0 0L0 7L7 7L7 0ZM1 1L1 6L6 6L6 1ZM2 2L2 5L5 5L5 2ZM34 0L34 7L41 7L41 0ZM35 1L35 6L40 6L40 1ZM36 2L36 5L39 5L39 2ZM0 34L0 41L7 41L7 34ZM1 35L1 40L6 40L6 35ZM2 36L2 39L5 39L5 36Z" fill="#000000"/></g></g></svg>
